# xmcd
# 
# Track frame offsets:
#     187
#     19792
#     37600
#     52892
#     76095
#     90407
#     113505
# 
# Disc length: 1869
# 
# Revision: 2
# Processed by: cddbd v1.5.2PL0 Copyright (c) Steve Scherf et al.
# Submitted via: fre:ac v1.0.31
# 
DISCID=37074b07
DTITLE=シャ乱Q - 売れっ子への道 渋滞中
DYEAR=1993
DGENRE=Pop
TTITLE0=友達はいますか?
TTITLE1=とってもメリーゴーランド
TTITLE2=Hey!Mr.おぼっちゃん
TTITLE3=最後のデートは「ま・た・ね」でお別れ
TTITLE4=突然なんですが
TTITLE5=パララ
TTITLE6=今宵はありがとう
EXTD=
EXTT0=
EXTT1=
EXTT2=
EXTT3=
EXTT4=
EXTT5=
EXTT6=
PLAYORDER=
